<svg version="1.1" id="Layer_1" xmlns="http://www.w3.org/2000/svg" xmlns:xlink="http://www.w3.org/1999/xlink" x="0px" y="0px"
	 width="100%" viewBox="0 0 480 1024" enable-background="new 0 0 480 1024" xml:space="preserve">
<path fill="#000000" opacity="1.000000" stroke="none" 
	d="
M243.625000,1.000000 
	C276.616730,34.023319 301.684601,72.371964 323.501251,113.082985 
	C349.649231,161.876450 366.057281,213.803909 374.103149,268.446198 
	C379.274017,303.563690 381.912109,338.871613 381.410492,374.401428 
	C381.147095,393.059204 381.722351,411.736572 381.129333,430.379974 
	C380.357178,454.653900 378.812836,478.893646 376.582184,503.099792 
	C374.154694,529.441711 371.367676,555.724731 367.438599,581.884155 
	C367.093170,584.184021 367.710449,586.028503 369.378723,587.755615 
	C389.282623,608.361328 409.132599,629.019104 429.009125,649.651306 
	C429.549103,650.211792 430.228485,650.638000 431.159546,651.378784 
	C435.439270,641.008362 441.638245,632.144409 447.071564,622.848145 
	C453.152649,612.443481 464.821808,612.400513 471.071106,622.617676 
	C474.286407,627.874512 477.422699,633.179688 480.797363,638.731506 
	C481.000000,698.354248 481.000000,757.708435 481.000000,817.531372 
	C473.058533,816.638916 465.056274,817.614807 457.084778,817.414612 
	C450.093567,817.239014 443.088715,817.197388 436.101288,817.433533 
	C432.071655,817.569763 430.438110,816.317749 430.589081,812.075623 
	C430.861389,804.423706 430.592834,796.754089 430.687988,789.093506 
	C430.720062,786.511841 430.190308,784.615051 427.509369,783.594543 
	C396.399506,771.752563 365.308716,759.860413 334.203979,748.004883 
	C333.784698,747.845093 333.251190,747.984985 332.187897,747.984985 
	C329.592712,756.383850 326.976288,764.934692 324.306702,773.468933 
	C321.276703,783.155334 318.124054,792.804077 315.186340,802.518127 
	C314.261566,805.576050 312.641022,806.530762 309.428680,806.521912 
	C265.800293,806.401794 222.171097,806.342163 178.543320,806.537292 
	C173.436523,806.560120 171.195847,804.822754 169.798386,800.069336 
	C165.246490,784.586182 160.317917,769.213623 155.509048,753.806396 
	C154.873672,751.770691 154.091965,749.780762 153.196075,747.257019 
	C145.865448,750.074036 138.900726,752.695984 131.976639,755.421265 
	C108.744743,764.565186 85.561897,773.835571 62.269512,782.822266 
	C58.509140,784.273071 57.148617,786.225647 57.280750,790.165161 
	C57.531853,797.651611 57.228870,805.155090 57.374111,812.647278 
	C57.438316,815.959290 56.484291,817.455566 52.874649,817.419434 
	C35.888134,817.249146 18.899593,817.280640 1.455888,817.119995 
	C1.000000,761.979126 1.000000,706.958191 1.000000,651.468628 
	C5.566691,640.984680 11.560166,631.771484 17.203753,622.368713 
	C23.080832,612.576843 34.678387,612.468201 40.617260,622.296631 
	C46.289494,631.683777 52.641323,640.709839 56.622173,650.996765 
	C58.837357,651.304199 59.686283,649.578247 60.767281,648.480835 
	C79.358322,629.607544 97.856392,610.642456 116.508354,591.829834 
	C119.031204,589.285278 118.995033,586.561035 118.607979,583.564819 
	C116.924583,570.533813 114.994499,557.531311 113.529106,544.476318 
	C111.450943,525.962219 109.322006,507.439941 107.912933,488.868195 
	C106.276398,467.298431 105.127808,445.692261 104.559914,424.048950 
	C103.730217,392.428284 103.888863,360.847473 105.538925,329.251282 
	C107.706841,287.738678 113.991371,246.893768 124.671021,206.745834 
	C135.276901,166.875336 152.379593,129.715607 172.771210,94.013329 
	C191.848816,60.611641 214.161240,29.546080 240.822739,1.281465 
	C241.750000,1.000000 242.500000,1.000000 243.625000,1.000000 
M118.266174,343.504974 
	C117.986458,350.155212 117.519852,356.803741 117.459129,363.455994 
	C117.185516,393.434174 117.458519,423.393982 119.141983,453.348969 
	C120.645599,480.103638 122.538734,506.823608 125.511993,533.441467 
	C128.852676,563.348755 133.061569,593.152222 138.404816,622.781555 
	C144.814438,658.323914 152.559723,693.565796 162.014175,728.429077 
	C162.863007,731.559082 163.694931,733.742859 167.788574,733.732849 
	C217.786545,733.610779 267.785004,733.630798 317.783051,733.741394 
	C321.354675,733.749329 322.766205,732.272461 323.617859,729.094727 
	C331.758820,698.718994 338.877777,668.111084 344.683380,637.202209 
	C349.993195,608.932739 354.483002,580.540405 357.938721,551.975769 
	C360.755157,528.695251 363.196686,505.391937 364.856964,481.996979 
	C365.799988,468.708588 366.550964,455.417999 367.124725,442.111084 
	C367.971069,422.482056 368.879639,402.855560 368.534821,383.200592 
	C368.386292,374.736603 367.951569,366.276459 367.877350,357.812592 
	C367.753143,343.649750 367.003174,329.529968 365.915894,315.407898 
	C363.123322,279.136200 357.010193,243.460144 347.804352,208.267303 
	C346.427917,203.005402 344.469147,201.119690 338.819641,201.139740 
	C276.655853,201.360550 214.491043,201.280502 152.326508,201.282227 
	C149.993256,201.282288 147.627670,201.531815 145.333755,201.231979 
	C141.094879,200.677902 139.306107,202.722137 138.511765,206.567322 
	C137.704834,210.473450 136.526932,214.301682 135.562134,218.176636 
	C125.395088,259.011169 119.815125,300.484436 118.266174,343.504974 
M256.817841,35.665600 
	C254.263611,32.591576 251.738708,29.492609 249.149338,26.448475 
	C242.820923,19.008575 242.809799,19.019531 236.581650,26.459919 
	C200.694199,69.332451 172.560928,116.843803 151.626816,168.645203 
	C150.682999,170.980698 149.118149,173.305069 149.780563,176.821503 
	C211.933456,175.059814 273.932434,176.672943 336.036804,175.615585 
	C331.650055,151.145493 287.584137,73.417679 256.817841,35.665600 
M356.344635,678.670654 
	C353.091217,695.978821 349.857941,713.290771 346.574554,730.593201 
	C345.252960,737.557739 345.186340,737.591492 351.946808,740.190308 
	C380.847198,751.300171 409.724426,762.472351 438.704742,773.370239 
	C442.702820,774.873718 444.165070,776.951416 444.035461,781.021912 
	C443.839417,787.178040 444.087921,793.346985 444.001038,799.508423 
	C443.955994,802.702942 445.323853,804.001404 448.490143,803.954468 
	C454.984833,803.858215 461.482117,803.954102 467.978210,803.932556 
	C474.452698,803.911133 474.629730,803.762146 474.632996,797.127380 
	C474.654816,752.819763 474.557129,708.511780 474.715088,664.204712 
	C474.764740,650.275818 465.380585,641.058167 459.210754,629.068848 
	C453.911621,638.206665 447.889435,645.579163 445.043762,654.489624 
	C442.163055,663.509705 445.240540,673.243713 443.067871,684.069763 
	C418.333649,658.297607 394.477356,633.440186 369.735718,607.660339 
	C365.140503,631.915833 360.792389,654.866943 356.344635,678.670654 
M107.126572,620.631409 
	C86.659081,641.445190 66.191589,662.259033 44.639294,684.176025 
	C43.096058,673.094055 45.730419,663.364136 42.982922,654.345947 
	C40.230484,645.311462 34.002918,637.914978 28.935305,629.047913 
	C25.442104,634.910095 22.661343,640.025635 19.449408,644.854431 
	C15.321410,651.060486 13.823160,657.683167 13.867126,665.144287 
	C14.085122,702.138855 13.963507,739.135498 13.961523,776.131409 
	C13.961112,783.797119 14.025849,791.463623 13.929517,799.128174 
	C13.888083,802.424683 15.051412,804.040833 18.575981,803.971436 
	C25.572409,803.833618 32.574783,803.852356 39.572056,803.967346 
	C42.826138,804.020813 44.023689,802.581726 43.978947,799.454468 
	C43.893139,793.456665 44.185173,787.447388 43.924934,781.460083 
	C43.737698,777.152283 45.328796,774.921631 49.436665,773.333984 
	C77.712074,762.406433 105.856415,751.139465 134.138824,740.230286 
	C138.968796,738.367249 140.280472,736.030212 139.202454,730.903870 
	C132.460068,698.841614 126.114555,666.696045 119.433800,634.620544 
	C118.003784,627.754700 117.302185,620.657104 114.599091,613.857422 
	C111.384796,615.481812 109.875305,618.218323 107.126572,620.631409 
M298.233032,792.965454 
	C302.682007,793.619873 304.764771,791.578186 305.938721,787.292542 
	C308.602020,777.569885 312.212860,768.107483 314.341888,758.339355 
	C312.060913,756.906372 310.011200,757.424683 308.068268,757.414978 
	C289.236755,757.321167 270.404877,757.295105 251.573181,757.231262 
	C226.743179,757.147156 201.913284,757.021545 177.083252,756.970764 
	C171.036041,756.958374 170.701050,757.515198 172.474945,763.292908 
	C174.917297,771.247803 177.587662,779.141541 179.731125,787.175964 
	C180.926590,791.656982 183.106216,793.109863 187.804153,793.083496 
	C224.300888,792.878479 260.799286,792.968933 298.233032,792.965454 
z"/>
<path fill="#000000" opacity="1.000000" stroke="none" 
	d="
M239.444168,1025.000000 
	C223.430573,1013.421387 209.208618,1000.460266 197.220093,985.102417 
	C176.549347,958.622131 163.527649,928.914673 160.005234,895.444641 
	C158.526779,881.396362 158.257187,867.171692 163.511597,853.545105 
	C168.818680,839.781921 178.342331,830.422852 192.458221,825.972656 
	C200.993729,823.281616 205.199234,826.444153 205.239365,835.474915 
	C205.354248,861.330322 212.934601,884.590637 229.143173,904.899963 
	C232.377335,908.952454 236.208588,912.417969 239.800110,916.123230 
	C242.207016,918.606384 244.039627,918.273315 246.560196,916.252808 
	C267.585266,899.398804 278.828705,877.344482 281.730255,850.779419 
	C282.363281,844.983765 282.681610,839.184082 282.659332,833.344360 
	C282.633331,826.533203 286.435944,823.681519 293.149628,825.563904 
	C307.518311,829.592773 316.965973,839.027100 322.226959,852.820557 
	C327.676147,867.107422 327.409393,882.035645 325.662537,896.730164 
	C319.495270,948.609863 293.218445,988.872437 252.573853,1020.528381 
	C250.866531,1021.858093 249.156418,1023.184143 247.223816,1024.755981 
	C244.629440,1025.000000 242.258896,1025.000000 239.444168,1025.000000 
M265.440186,990.938538 
	C291.264404,963.902161 307.938385,932.307434 312.287048,894.895752 
	C313.627533,883.363586 314.134796,871.567078 310.569885,860.208557 
	C308.112640,852.379150 304.160339,845.469910 296.144684,841.474792 
	C295.477234,847.633240 295.114532,853.261353 294.224915,858.804932 
	C289.644104,887.349731 276.230042,910.764038 253.116653,928.338684 
	C244.301193,935.041626 240.780197,934.782410 232.516617,927.583374 
	C210.920258,908.769104 198.464233,884.944214 193.568802,856.885742 
	C192.697983,851.894531 193.136230,846.648193 190.918182,841.355469 
	C182.292984,845.370117 177.687088,852.332031 175.383255,860.695374 
	C170.854645,877.135254 172.226746,893.783081 175.874008,910.088318 
	C184.931671,950.581116 207.415344,982.570435 239.495621,1008.279358 
	C242.134018,1010.393860 243.951538,1010.149536 246.387131,1008.141541 
	C252.817261,1002.840027 259.093475,997.382874 265.440186,990.938538 
z"/>
<path fill="#000000" opacity="1.000000" stroke="none" 
	d="
M302.143738,327.094513 
	C316.176758,366.634033 294.635681,405.363678 254.266464,413.794373 
	C219.810959,420.989990 183.973465,394.822937 179.627182,359.800049 
	C175.070786,323.084229 200.701523,289.328644 239.992249,287.028107 
	C264.427765,285.597321 290.750092,299.561829 302.143738,327.094513 
M256.824249,399.406219 
	C280.251373,392.944336 296.775543,367.704285 292.785278,343.122589 
	C288.635101,317.555542 264.107422,297.790100 238.928177,300.472443 
	C211.562622,303.387665 190.852066,326.618195 192.427734,353.064728 
	C194.397980,386.134003 225.652802,408.005615 256.824249,399.406219 
z"/>
</svg>